<svg width="191" height="19" viewBox="0 0 191 19" fill="none" xmlns="http://www.w3.org/2000/svg">
<path d="M8.4639 7.344C6.3039 6.744 5.2239 6.408 5.2239 5.352C5.2239 4.392 6.2319 3.984 7.5279 3.984C9.1839 3.984 10.2879 4.752 10.4799 6.048H14.7999C14.6799 2.568 11.5359 0.456 7.5279 0.456C3.8319 0.456 0.903904 1.92 0.903904 5.664C0.903904 8.832 3.4959 10.104 6.4479 10.968C8.8719 11.688 10.7199 12 10.7199 13.368C10.7199 14.232 9.8559 14.856 8.2479 14.856C6.3279 14.856 4.7439 14.184 4.7439 12.36H0.423904C0.423904 16.176 3.7839 18.384 8.2479 18.384C12.5439 18.384 15.0399 16.248 15.0399 12.96C15.0399 9.288 11.7039 8.232 8.4639 7.344ZM20.1536 18H24.4736V4.368H29.4416V0.839999H15.1616V4.368H20.1536V18ZM45.0153 11.808V0.839999H40.6953V11.808C40.6953 14.04 39.7353 14.856 37.8393 14.856C35.9433 14.856 34.9833 14.04 34.9833 11.808V0.839999H30.6633V11.808C30.6633 16.08 32.6553 18.384 37.8393 18.384C43.0233 18.384 45.0153 16.08 45.0153 11.808ZM46.9965 18H54.8445C59.6205 18 62.2605 14.952 62.2605 9.432C62.2605 3.912 59.3805 0.839999 54.6045 0.839999H46.9965V18ZM51.3165 4.368H54.1725C56.8605 4.368 57.9405 6.312 57.9405 9.432C57.9405 12.552 56.8605 14.472 54.1725 14.472H51.3165V4.368ZM63.7023 0.839999V18H68.0223V0.839999H63.7023ZM78.0587 18.384C83.4587 18.384 86.5547 14.592 86.5547 9.408C86.5547 4.248 83.4587 0.456 78.0587 0.456C72.6107 0.456 69.5627 4.248 69.5627 9.408C69.5627 14.592 72.6107 18.384 78.0587 18.384ZM78.0587 14.856C74.9147 14.856 73.8827 12.408 73.8827 9.408C73.8827 6.432 74.9147 3.984 78.0587 3.984C81.1787 3.984 82.2347 6.432 82.2347 9.408C82.2347 12.408 81.1787 14.856 78.0587 14.856ZM96.1299 8.136V4.368H104.578V0.839999H91.8099V18H96.1299V11.664H103.018V8.136H96.1299ZM106.007 18H110.327V12.024H113.015C116.687 12.024 115.127 17.28 115.967 18H120.455V17.76C119.471 17.472 121.031 10.824 116.735 10.08V10.032C118.871 9.552 120.215 8.112 120.215 5.832C120.215 2.592 117.911 0.839999 114.095 0.839999H106.007V18ZM110.327 4.368H113.255C114.983 4.368 115.895 4.992 115.895 6.432C115.895 7.872 114.983 8.496 113.255 8.496H110.327V4.368ZM126.189 7.416V4.368H134.877V0.839999H121.869V18H135.021V14.472H126.189V10.944H133.677V7.416H126.189ZM136.723 0.839999V18H141.043V0.839999H136.723ZM154.32 6.528H158.64C158.232 3.24 155.616 0.456 150.912 0.456C145.512 0.456 142.608 4.248 142.608 9.408C142.608 14.592 145.512 18.384 150.384 18.384C152.904 18.384 154.512 17.376 155.328 15.816H155.376L155.808 18H158.904V8.88H151.176V12H154.44C154.392 13.656 153 14.856 151.008 14.856C148.008 14.856 146.928 12.648 146.928 9.408C146.928 6.192 148.008 3.984 150.84 3.984C153.216 3.984 154.008 5.352 154.32 6.528ZM160.735 0.839999V18H165.055V11.088H170.935V18H175.255V0.839999H170.935V7.56H165.055V0.839999H160.735ZM181.242 18H185.562V4.368H190.53V0.839999H176.25V4.368H181.242V18Z" fill="#F2F2F2"/>
</svg>
