        <svg
          width="87"
          height="50"
          viewBox="0 0 87 50"
          fill="none"
          xmlns="http://www.w3.org/2000/svg"
        >
          <path
            d="M43.0239 1.84894V1.39214H42.2243L42.5078 0H42.0426L41.7664 1.39214H41.1122L41.3957 0H40.9305L40.6543 1.39214H39.7675V1.84894H40.5671L40.349 2.94381H39.5785V3.4006H40.2618L39.9274 5.05378H40.3926L40.7197 3.4006H41.3739L41.0395 5.05378H41.5047L41.8318 3.4006H42.8204V2.94381H41.9263L42.1444 1.84894H43.0239ZM40.8142 2.94381L41.0323 1.84894H41.6792L41.4611 2.94381H40.8142Z"
            fill="#F2F2F2"
          />
          <path
            d="M47.4215 1.84894V1.39214H46.6219L46.9054 0H46.4402L46.164 1.39214H45.5098L45.7933 0H45.3281L45.0519 1.39214H44.1651V1.84894H44.9647L44.7466 2.94381H43.9761V3.4006H44.6594L44.325 5.05378H44.7902L45.1173 3.4006H45.7715L45.4371 5.05378H45.9023L46.2294 3.4006H47.218V2.94381H46.3239L46.542 1.84894H47.4215ZM45.2118 2.94381L45.4299 1.84894H46.0768L45.8587 2.94381H45.2118Z"
            fill="#F2F2F2"
          />
          <path
            d="M3.4454 8.26983V7.81303H2.64584L2.92932 6.42089H2.46412L2.1879 7.81303H1.53371L1.81719 6.42089H1.35199L1.07578 7.81303H0.188988V8.26983H0.988554L0.770491 9.3647H0V9.82149H0.683265L0.348901 11.4747H0.814103L1.1412 9.82149H1.79539L1.46102 11.4747H1.92623L2.25332 9.82149H3.24188V9.3647H2.34782L2.56588 8.26983H3.4454ZM1.23569 9.3647L1.45376 8.26983H2.10068L1.88261 9.3647H1.23569Z"
            fill="#F2F2F2"
          />
          <path
            d="M7.84301 8.26983V7.81303H7.04345L7.32693 6.42089H6.86173L6.58551 7.81303H5.93132L6.21481 6.42089H5.7496L5.47339 7.81303H4.5866V8.26983H5.38616L5.1681 9.3647H4.39761V9.82149H5.08088L4.74651 11.4747H5.21171L5.53881 9.82149H6.193L5.85863 11.4747H6.32384L6.65093 9.82149H7.63949V9.3647H6.74543L6.96349 8.26983H7.84301ZM5.6333 9.3647L5.85137 8.26983H6.49829L6.28022 9.3647H5.6333Z"
            fill="#F2F2F2"
          />
          <path
            d="M12.2406 8.26983V7.81303H11.4411L11.7245 6.42089H11.2593L10.9831 7.81303H10.3289L10.6124 6.42089H10.1472L9.871 7.81303H8.98421V8.26983H9.78378L9.56571 9.3647H8.79522V9.82149H9.47849L9.14412 11.4747H9.60932L9.93642 9.82149H10.5906L10.2562 11.4747H10.7214L11.0485 9.82149H12.0371V9.3647H11.143L11.3611 8.26983H12.2406ZM10.0309 9.3647L10.249 8.26983H10.8959L10.6778 9.3647H10.0309Z"
            fill="#F2F2F2"
          />
          <path
            d="M43.0239 8.26983V7.81303H42.2243L42.5078 6.42089H42.0426L41.7664 7.81303H41.1122L41.3957 6.42089H40.9305L40.6543 7.81303H39.7675V8.26983H40.5671L40.349 9.3647H39.5785V9.82149H40.2618L39.9274 11.4747H40.3926L40.7197 9.82149H41.3739L41.0395 11.4747H41.5047L41.8318 9.82149H42.8204V9.3647H41.9263L42.1444 8.26983H43.0239ZM40.8142 9.3647L41.0323 8.26983H41.6792L41.4611 9.3647H40.8142Z"
            fill="#F2F2F2"
          />
          <path
            d="M47.4215 8.26983V7.81303H46.6219L46.9054 6.42089H46.4402L46.164 7.81303H45.5098L45.7933 6.42089H45.3281L45.0519 7.81303H44.1651V8.26983H44.9647L44.7466 9.3647H43.9761V9.82149H44.6594L44.325 11.4747H44.7902L45.1173 9.82149H45.7715L45.4371 11.4747H45.9023L46.2294 9.82149H47.218V9.3647H46.3239L46.542 8.26983H47.4215ZM45.2118 9.3647L45.4299 8.26983H46.0768L45.8587 9.3647H45.2118Z"
            fill="#F2F2F2"
          />
          <path
            d="M78.2048 8.26983V7.81303H77.4052L77.6887 6.42089H77.2235L76.9473 7.81303H76.2931L76.5766 6.42089H76.1114L75.8352 7.81303H74.9484V8.26983H75.7479L75.5299 9.3647H74.7594V9.82149H75.4426L75.1083 11.4747H75.5735L75.9006 9.82149H76.5548L76.2204 11.4747H76.6856L77.0127 9.82149H78.0013V9.3647H77.1072L77.3253 8.26983H78.2048ZM75.9951 9.3647L76.2131 8.26983H76.8601L76.642 9.3647H75.9951Z"
            fill="#F2F2F2"
          />
          <path
            d="M82.6024 8.26983V7.81303H81.8028L82.0863 6.42089H81.6211L81.3449 7.81303H80.6907L80.9742 6.42089H80.509L80.2328 7.81303H79.346V8.26983H80.1455L79.9275 9.3647H79.157V9.82149H79.8403L79.5059 11.4747H79.9711L80.2982 9.82149H80.9524L80.618 11.4747H81.0832L81.4103 9.82149H82.3989V9.3647H81.5048L81.7229 8.26983H82.6024ZM80.3927 9.3647L80.6107 8.26983H81.2577L81.0396 9.3647H80.3927Z"
            fill="#F2F2F2"
          />
          <path
            d="M87 8.26983V7.81303H86.2004L86.4839 6.42089H86.0187L85.7425 7.81303H85.0883L85.3718 6.42089H84.9066L84.6304 7.81303H83.7436V8.26983H84.5432L84.3251 9.3647H83.5546V9.82149H84.2379L83.9035 11.4747H84.3687L84.6958 9.82149H85.35L85.0156 11.4747H85.4808L85.8079 9.82149H86.7965V9.3647H85.9024L86.1205 8.26983H87ZM84.7903 9.3647L85.0084 8.26983H85.6553L85.4372 9.3647H84.7903Z"
            fill="#F2F2F2"
          />
          <path
            d="M12.2406 14.6907V14.2339H11.4411L11.7245 12.8418H11.2593L10.9831 14.2339H10.3289L10.6124 12.8418H10.1472L9.871 14.2339H8.98421V14.6907H9.78378L9.56571 15.7856H8.79522V16.2424H9.47849L9.14412 17.8956H9.60932L9.93642 16.2424H10.5906L10.2562 17.8956H10.7214L11.0485 16.2424H12.0371V15.7856H11.143L11.3611 14.6907H12.2406ZM10.0309 15.7856L10.249 14.6907H10.8959L10.6778 15.7856H10.0309Z"
            fill="#F2F2F2"
          />
          <path
            d="M16.6382 14.6907V14.2339H15.8387L16.1221 12.8418H15.6569L15.3807 14.2339H14.7265L15.01 12.8418H14.5448L14.2686 14.2339H13.3818V14.6907H14.1814L13.9633 15.7856H13.1928V16.2424H13.8761L13.5417 17.8956H14.0069L14.334 16.2424H14.9882L14.6539 17.8956H15.1191L15.4462 16.2424H16.4347V15.7856H15.5406L15.7587 14.6907H16.6382ZM14.4285 15.7856L14.6466 14.6907H15.2935L15.0754 15.7856H14.4285Z"
            fill="#F2F2F2"
          />
          <path
            d="M21.0358 14.6907V14.2339H20.2363L20.5198 12.8418H20.0546L19.7783 14.2339H19.1242L19.4076 12.8418H18.9424L18.6662 14.2339H17.7794V14.6907H18.579L18.3609 15.7856H17.5904V16.2424H18.2737L17.9393 17.8956H18.4045L18.7316 16.2424H19.3858L19.0515 17.8956H19.5167L19.8438 16.2424H20.8323V15.7856H19.9383L20.1563 14.6907H21.0358ZM18.8261 15.7856L19.0442 14.6907H19.6911L19.4731 15.7856H18.8261Z"
            fill="#F2F2F2"
          />
          <path
            d="M43.0239 14.6907V14.2339H42.2243L42.5078 12.8418H42.0426L41.7664 14.2339H41.1122L41.3957 12.8418H40.9305L40.6543 14.2339H39.7675V14.6907H40.5671L40.349 15.7856H39.5785V16.2424H40.2618L39.9274 17.8956H40.3926L40.7197 16.2424H41.3739L41.0395 17.8956H41.5047L41.8318 16.2424H42.8204V15.7856H41.9263L42.1444 14.6907H43.0239ZM40.8142 15.7856L41.0323 14.6907H41.6792L41.4611 15.7856H40.8142Z"
            fill="#F2F2F2"
          />
          <path
            d="M47.4215 14.6907V14.2339H46.6219L46.9054 12.8418H46.4402L46.164 14.2339H45.5098L45.7933 12.8418H45.3281L45.0519 14.2339H44.1651V14.6907H44.9647L44.7466 15.7856H43.9761V16.2424H44.6594L44.325 17.8956H44.7902L45.1173 16.2424H45.7715L45.4371 17.8956H45.9023L46.2294 16.2424H47.218V15.7856H46.3239L46.542 14.6907H47.4215ZM45.2118 15.7856L45.4299 14.6907H46.0768L45.8587 15.7856H45.2118Z"
            fill="#F2F2F2"
          />
          <path
            d="M69.4096 14.6907V14.2339H68.61L68.8935 12.8418H68.4283L68.1521 14.2339H67.4979L67.7813 12.8418H67.3162L67.0399 14.2339H66.1532V14.6907H66.9527L66.7346 15.7856H65.9642V16.2424H66.6474L66.3131 17.8956H66.7783L67.1054 16.2424H67.7595L67.4252 17.8956H67.8904L68.2175 16.2424H69.206V15.7856H68.312L68.53 14.6907H69.4096ZM67.1999 15.7856L67.4179 14.6907H68.0648L67.8468 15.7856H67.1999Z"
            fill="#F2F2F2"
          />
          <path
            d="M73.8072 14.6907V14.2339H73.0076L73.2911 12.8418H72.8259L72.5497 14.2339H71.8955L72.179 12.8418H71.7138L71.4376 14.2339H70.5508V14.6907H71.3503L71.1323 15.7856H70.3618V16.2424H71.045L70.7107 17.8956H71.1759L71.503 16.2424H72.1572L71.8228 17.8956H72.288L72.6151 16.2424H73.6036V15.7856H72.7096L72.9277 14.6907H73.8072ZM71.5975 15.7856L71.8155 14.6907H72.4624L72.2444 15.7856H71.5975Z"
            fill="#F2F2F2"
          />
          <path
            d="M78.2048 14.6907V14.2339H77.4052L77.6887 12.8418H77.2235L76.9473 14.2339H76.2931L76.5766 12.8418H76.1114L75.8352 14.2339H74.9484V14.6907H75.7479L75.5299 15.7856H74.7594V16.2424H75.4426L75.1083 17.8956H75.5735L75.9006 16.2424H76.5548L76.2204 17.8956H76.6856L77.0127 16.2424H78.0013V15.7856H77.1072L77.3253 14.6907H78.2048ZM75.9951 15.7856L76.2131 14.6907H76.8601L76.642 15.7856H75.9951Z"
            fill="#F2F2F2"
          />
          <path
            d="M25.4335 21.1116V20.6548H24.6339L24.9174 19.2627H24.4522L24.176 20.6548H23.5218L23.8052 19.2627H23.34L23.0638 20.6548H22.177V21.1116H22.9766L22.7585 22.2065H21.9881V22.6633H22.6713L22.337 24.3164H22.8022L23.1293 22.6633H23.7834L23.4491 24.3164H23.9143L24.2414 22.6633H25.2299V22.2065H24.3359L24.5539 21.1116H25.4335ZM23.2237 22.2065L23.4418 21.1116H24.0887L23.8707 22.2065H23.2237Z"
            fill="#F2F2F2"
          />
          <path
            d="M29.8311 21.1116V20.6548H29.0315L29.315 19.2627H28.8498L28.5736 20.6548H27.9194L28.2029 19.2627H27.7377L27.4614 20.6548H26.5747V21.1116H27.3742L27.1562 22.2065H26.3857V22.6633H27.0689L26.7346 24.3164H27.1998L27.5269 22.6633H28.1811L27.8467 24.3164H28.3119L28.639 22.6633H29.6275V22.2065H28.7335L28.9515 21.1116H29.8311ZM27.6214 22.2065L27.8394 21.1116H28.4863L28.2683 22.2065H27.6214Z"
            fill="#F2F2F2"
          />
          <path
            d="M34.2287 21.1116V20.6548H33.4291L33.7126 19.2627H33.2474L32.9712 20.6548H32.317L32.6005 19.2627H32.1353L31.8591 20.6548H30.9723V21.1116H31.7718L31.5538 22.2065H30.7833V22.6633H31.4665L31.1322 24.3164H31.5974L31.9245 22.6633H32.5787L32.2443 24.3164H32.7095L33.0366 22.6633H34.0252V22.2065H33.1311L33.3492 21.1116H34.2287ZM32.019 22.2065L32.237 21.1116H32.884L32.6659 22.2065H32.019Z"
            fill="#F2F2F2"
          />
          <path
            d="M43.0239 21.1116V20.6548H42.2243L42.5078 19.2627H42.0426L41.7664 20.6548H41.1122L41.3957 19.2627H40.9305L40.6543 20.6548H39.7675V21.1116H40.5671L40.349 22.2065H39.5785V22.6633H40.2618L39.9274 24.3164H40.3926L40.7197 22.6633H41.3739L41.0395 24.3164H41.5047L41.8318 22.6633H42.8204V22.2065H41.9263L42.1444 21.1116H43.0239ZM40.8142 22.2065L41.0323 21.1116H41.6792L41.4611 22.2065H40.8142Z"
            fill="#F2F2F2"
          />
          <path
            d="M47.4215 21.1116V20.6548H46.6219L46.9054 19.2627H46.4402L46.164 20.6548H45.5098L45.7933 19.2627H45.3281L45.0519 20.6548H44.1651V21.1116H44.9647L44.7466 22.2065H43.9761V22.6633H44.6594L44.325 24.3164H44.7902L45.1173 22.6633H45.7715L45.4371 24.3164H45.9023L46.2294 22.6633H47.218V22.2065H46.3239L46.542 21.1116H47.4215ZM45.2118 22.2065L45.4299 21.1116H46.0768L45.8587 22.2065H45.2118Z"
            fill="#F2F2F2"
          />
          <path
            d="M56.2167 21.1116V20.6548H55.4172L55.7006 19.2627H55.2354L54.9592 20.6548H54.305L54.5885 19.2627H54.1233L53.8471 20.6548H52.9603V21.1116H53.7599L53.5418 22.2065H52.7713V22.6633H53.4546L53.1202 24.3164H53.5854L53.9125 22.6633H54.5667L54.2324 24.3164H54.6976L55.0247 22.6633H56.0132V22.2065H55.1191L55.3372 21.1116H56.2167ZM54.007 22.2065L54.2251 21.1116H54.872L54.6539 22.2065H54.007Z"
            fill="#F2F2F2"
          />
          <path
            d="M60.6143 21.1116V20.6548H59.8148L60.0983 19.2627H59.6331L59.3568 20.6548H58.7027L58.9861 19.2627H58.5209L58.2447 20.6548H57.3579V21.1116H58.1575L57.9394 22.2065H57.1689V22.6633H57.8522L57.5178 24.3164H57.983L58.3101 22.6633H58.9643L58.63 24.3164H59.0952L59.4223 22.6633H60.4108V22.2065H59.5168L59.7348 21.1116H60.6143ZM58.4046 22.2065L58.6227 21.1116H59.2696L59.0516 22.2065H58.4046Z"
            fill="#F2F2F2"
          />
          <path
            d="M65.0119 21.1116V20.6548H64.2124L64.4959 19.2627H64.0307L63.7545 20.6548H63.1003L63.3837 19.2627H62.9185L62.6423 20.6548H61.7555V21.1116H62.5551L62.337 22.2065H61.5666V22.6633H62.2498L61.9155 24.3164H62.3807L62.7077 22.6633H63.3619L63.0276 24.3164H63.4928L63.8199 22.6633H64.8084V22.2065H63.9144L64.1324 21.1116H65.0119ZM62.8022 22.2065L63.0203 21.1116H63.6672L63.4492 22.2065H62.8022Z"
            fill="#F2F2F2"
          />
          <path
            d="M25.4335 27.5325V27.0757H24.6339L24.9174 25.6836H24.4522L24.176 27.0757H23.5218L23.8052 25.6836H23.34L23.0638 27.0757H22.177V27.5325H22.9766L22.7585 28.6274H21.9881V29.0842H22.6713L22.337 30.7373H22.8022L23.1293 29.0842H23.7834L23.4491 30.7373H23.9143L24.2414 29.0842H25.2299V28.6274H24.3359L24.5539 27.5325H25.4335ZM23.2237 28.6274L23.4418 27.5325H24.0887L23.8707 28.6274H23.2237Z"
            fill="#F2F2F2"
          />
          <path
            d="M29.8311 27.5325V27.0757H29.0315L29.315 25.6836H28.8498L28.5736 27.0757H27.9194L28.2029 25.6836H27.7377L27.4614 27.0757H26.5747V27.5325H27.3742L27.1562 28.6274H26.3857V29.0842H27.0689L26.7346 30.7373H27.1998L27.5269 29.0842H28.1811L27.8467 30.7373H28.3119L28.639 29.0842H29.6275V28.6274H28.7335L28.9515 27.5325H29.8311ZM27.6214 28.6274L27.8394 27.5325H28.4863L28.2683 28.6274H27.6214Z"
            fill="#F2F2F2"
          />
          <path
            d="M34.2287 27.5325V27.0757H33.4291L33.7126 25.6836H33.2474L32.9712 27.0757H32.317L32.6005 25.6836H32.1353L31.8591 27.0757H30.9723V27.5325H31.7718L31.5538 28.6274H30.7833V29.0842H31.4665L31.1322 30.7373H31.5974L31.9245 29.0842H32.5787L32.2443 30.7373H32.7095L33.0366 29.0842H34.0252V28.6274H33.1311L33.3492 27.5325H34.2287ZM32.019 28.6274L32.237 27.5325H32.884L32.6659 28.6274H32.019Z"
            fill="#F2F2F2"
          />
          <path
            d="M43.0239 27.5325V27.0757H42.2243L42.5078 25.6836H42.0426L41.7664 27.0757H41.1122L41.3957 25.6836H40.9305L40.6543 27.0757H39.7675V27.5325H40.5671L40.349 28.6274H39.5785V29.0842H40.2618L39.9274 30.7373H40.3926L40.7197 29.0842H41.3739L41.0395 30.7373H41.5047L41.8318 29.0842H42.8204V28.6274H41.9263L42.1444 27.5325H43.0239ZM40.8142 28.6274L41.0323 27.5325H41.6792L41.4611 28.6274H40.8142Z"
            fill="#F2F2F2"
          />
          <path
            d="M47.4215 27.5325V27.0757H46.6219L46.9054 25.6836H46.4402L46.164 27.0757H45.5098L45.7933 25.6836H45.3281L45.0519 27.0757H44.1651V27.5325H44.9647L44.7466 28.6274H43.9761V29.0842H44.6594L44.325 30.7373H44.7902L45.1173 29.0842H45.7715L45.4371 30.7373H45.9023L46.2294 29.0842H47.218V28.6274H46.3239L46.542 27.5325H47.4215ZM45.2118 28.6274L45.4299 27.5325H46.0768L45.8587 28.6274H45.2118Z"
            fill="#F2F2F2"
          />
          <path
            d="M56.2167 27.5325V27.0757H55.4172L55.7006 25.6836H55.2354L54.9592 27.0757H54.305L54.5885 25.6836H54.1233L53.8471 27.0757H52.9603V27.5325H53.7599L53.5418 28.6274H52.7713V29.0842H53.4546L53.1202 30.7373H53.5854L53.9125 29.0842H54.5667L54.2324 30.7373H54.6976L55.0247 29.0842H56.0132V28.6274H55.1191L55.3372 27.5325H56.2167ZM54.007 28.6274L54.2251 27.5325H54.872L54.6539 28.6274H54.007Z"
            fill="#F2F2F2"
          />
          <path
            d="M60.6143 27.5325V27.0757H59.8148L60.0983 25.6836H59.6331L59.3568 27.0757H58.7027L58.9861 25.6836H58.5209L58.2447 27.0757H57.3579V27.5325H58.1575L57.9394 28.6274H57.1689V29.0842H57.8522L57.5178 30.7373H57.983L58.3101 29.0842H58.9643L58.63 30.7373H59.0952L59.4223 29.0842H60.4108V28.6274H59.5168L59.7348 27.5325H60.6143ZM58.4046 28.6274L58.6227 27.5325H59.2696L59.0516 28.6274H58.4046Z"
            fill="#F2F2F2"
          />
          <path
            d="M65.0119 27.5325V27.0757H64.2124L64.4959 25.6836H64.0307L63.7545 27.0757H63.1003L63.3837 25.6836H62.9185L62.6423 27.0757H61.7555V27.5325H62.5551L62.337 28.6274H61.5666V29.0842H62.2498L61.9155 30.7373H62.3807L62.7077 29.0842H63.3619L63.0276 30.7373H63.4928L63.8199 29.0842H64.8084V28.6274H63.9144L64.1324 27.5325H65.0119ZM62.8022 28.6274L63.0203 27.5325H63.6672L63.4492 28.6274H62.8022Z"
            fill="#F2F2F2"
          />
          <path
            d="M12.2406 33.9534V33.4966H11.4411L11.7245 32.1044H11.2593L10.9831 33.4966H10.3289L10.6124 32.1044H10.1472L9.871 33.4966H8.98421V33.9534H9.78378L9.56571 35.0483H8.79522V35.5051H9.47849L9.14412 37.1582H9.60932L9.93642 35.5051H10.5906L10.2562 37.1582H10.7214L11.0485 35.5051H12.0371V35.0483H11.143L11.3611 33.9534H12.2406ZM10.0309 35.0483L10.249 33.9534H10.8959L10.6778 35.0483H10.0309Z"
            fill="#F2F2F2"
          />
          <path
            d="M16.6382 33.9534V33.4966H15.8387L16.1221 32.1044H15.6569L15.3807 33.4966H14.7265L15.01 32.1044H14.5448L14.2686 33.4966H13.3818V33.9534H14.1814L13.9633 35.0483H13.1928V35.5051H13.8761L13.5417 37.1582H14.0069L14.334 35.5051H14.9882L14.6539 37.1582H15.1191L15.4462 35.5051H16.4347V35.0483H15.5406L15.7587 33.9534H16.6382ZM14.4285 35.0483L14.6466 33.9534H15.2935L15.0754 35.0483H14.4285Z"
            fill="#F2F2F2"
          />
          <path
            d="M21.0358 33.9534V33.4966H20.2363L20.5198 32.1044H20.0546L19.7783 33.4966H19.1242L19.4076 32.1044H18.9424L18.6662 33.4966H17.7794V33.9534H18.579L18.3609 35.0483H17.5904V35.5051H18.2737L17.9393 37.1582H18.4045L18.7316 35.5051H19.3858L19.0515 37.1582H19.5167L19.8438 35.5051H20.8323V35.0483H19.9383L20.1563 33.9534H21.0358ZM18.8261 35.0483L19.0442 33.9534H19.6911L19.4731 35.0483H18.8261Z"
            fill="#F2F2F2"
          />
          <path
            d="M43.0239 33.9534V33.4966H42.2243L42.5078 32.1044H42.0426L41.7664 33.4966H41.1122L41.3957 32.1044H40.9305L40.6543 33.4966H39.7675V33.9534H40.5671L40.349 35.0483H39.5785V35.5051H40.2618L39.9274 37.1582H40.3926L40.7197 35.5051H41.3739L41.0395 37.1582H41.5047L41.8318 35.5051H42.8204V35.0483H41.9263L42.1444 33.9534H43.0239ZM40.8142 35.0483L41.0323 33.9534H41.6792L41.4611 35.0483H40.8142Z"
            fill="#F2F2F2"
          />
          <path
            d="M47.4215 33.9534V33.4966H46.6219L46.9054 32.1044H46.4402L46.164 33.4966H45.5098L45.7933 32.1044H45.3281L45.0519 33.4966H44.1651V33.9534H44.9647L44.7466 35.0483H43.9761V35.5051H44.6594L44.325 37.1582H44.7902L45.1173 35.5051H45.7715L45.4371 37.1582H45.9023L46.2294 35.5051H47.218V35.0483H46.3239L46.542 33.9534H47.4215ZM45.2118 35.0483L45.4299 33.9534H46.0768L45.8587 35.0483H45.2118Z"
            fill="#F2F2F2"
          />
          <path
            d="M69.4096 33.9534V33.4966H68.61L68.8935 32.1044H68.4283L68.1521 33.4966H67.4979L67.7813 32.1044H67.3162L67.0399 33.4966H66.1532V33.9534H66.9527L66.7346 35.0483H65.9642V35.5051H66.6474L66.3131 37.1582H66.7783L67.1054 35.5051H67.7595L67.4252 37.1582H67.8904L68.2175 35.5051H69.206V35.0483H68.312L68.53 33.9534H69.4096ZM67.1999 35.0483L67.4179 33.9534H68.0648L67.8468 35.0483H67.1999Z"
            fill="#F2F2F2"
          />
          <path
            d="M73.8072 33.9534V33.4966H73.0076L73.2911 32.1044H72.8259L72.5497 33.4966H71.8955L72.179 32.1044H71.7138L71.4376 33.4966H70.5508V33.9534H71.3503L71.1323 35.0483H70.3618V35.5051H71.045L70.7107 37.1582H71.1759L71.503 35.5051H72.1572L71.8228 37.1582H72.288L72.6151 35.5051H73.6036V35.0483H72.7096L72.9277 33.9534H73.8072ZM71.5975 35.0483L71.8155 33.9534H72.4624L72.2444 35.0483H71.5975Z"
            fill="#F2F2F2"
          />
          <path
            d="M78.2048 33.9534V33.4966H77.4052L77.6887 32.1044H77.2235L76.9473 33.4966H76.2931L76.5766 32.1044H76.1114L75.8352 33.4966H74.9484V33.9534H75.7479L75.5299 35.0483H74.7594V35.5051H75.4426L75.1083 37.1582H75.5735L75.9006 35.5051H76.5548L76.2204 37.1582H76.6856L77.0127 35.5051H78.0013V35.0483H77.1072L77.3253 33.9534H78.2048ZM75.9951 35.0483L76.2131 33.9534H76.8601L76.642 35.0483H75.9951Z"
            fill="#F2F2F2"
          />
          <path
            d="M3.4454 40.3743V39.9175H2.64584L2.92932 38.5253H2.46412L2.1879 39.9175H1.53371L1.81719 38.5253H1.35199L1.07578 39.9175H0.188988V40.3743H0.988554L0.770491 41.4691H0V41.9259H0.683265L0.348901 43.5791H0.814103L1.1412 41.9259H1.79539L1.46102 43.5791H1.92623L2.25332 41.9259H3.24188V41.4691H2.34782L2.56588 40.3743H3.4454ZM1.23569 41.4691L1.45376 40.3743H2.10068L1.88261 41.4691H1.23569Z"
            fill="#F2F2F2"
          />
          <path
            d="M7.84301 40.3743V39.9175H7.04345L7.32693 38.5253H6.86173L6.58551 39.9175H5.93132L6.21481 38.5253H5.7496L5.47339 39.9175H4.5866V40.3743H5.38616L5.1681 41.4691H4.39761V41.9259H5.08088L4.74651 43.5791H5.21171L5.53881 41.9259H6.193L5.85863 43.5791H6.32384L6.65093 41.9259H7.63949V41.4691H6.74543L6.96349 40.3743H7.84301ZM5.6333 41.4691L5.85137 40.3743H6.49829L6.28022 41.4691H5.6333Z"
            fill="#F2F2F2"
          />
          <path
            d="M12.2406 40.3743V39.9175H11.4411L11.7245 38.5253H11.2593L10.9831 39.9175H10.3289L10.6124 38.5253H10.1472L9.871 39.9175H8.98421V40.3743H9.78378L9.56571 41.4691H8.79522V41.9259H9.47849L9.14412 43.5791H9.60932L9.93642 41.9259H10.5906L10.2562 43.5791H10.7214L11.0485 41.9259H12.0371V41.4691H11.143L11.3611 40.3743H12.2406ZM10.0309 41.4691L10.249 40.3743H10.8959L10.6778 41.4691H10.0309Z"
            fill="#F2F2F2"
          />
          <path
            d="M43.0239 40.3743V39.9175H42.2243L42.5078 38.5253H42.0426L41.7664 39.9175H41.1122L41.3957 38.5253H40.9305L40.6543 39.9175H39.7675V40.3743H40.5671L40.349 41.4691H39.5785V41.9259H40.2618L39.9274 43.5791H40.3926L40.7197 41.9259H41.3739L41.0395 43.5791H41.5047L41.8318 41.9259H42.8204V41.4691H41.9263L42.1444 40.3743H43.0239ZM40.8142 41.4691L41.0323 40.3743H41.6792L41.4611 41.4691H40.8142Z"
            fill="#F2F2F2"
          />
          <path
            d="M47.4215 40.3743V39.9175H46.6219L46.9054 38.5253H46.4402L46.164 39.9175H45.5098L45.7933 38.5253H45.3281L45.0519 39.9175H44.1651V40.3743H44.9647L44.7466 41.4691H43.9761V41.9259H44.6594L44.325 43.5791H44.7902L45.1173 41.9259H45.7715L45.4371 43.5791H45.9023L46.2294 41.9259H47.218V41.4691H46.3239L46.542 40.3743H47.4215ZM45.2118 41.4691L45.4299 40.3743H46.0768L45.8587 41.4691H45.2118Z"
            fill="#F2F2F2"
          />
          <path
            d="M78.2048 40.3743V39.9175H77.4052L77.6887 38.5253H77.2235L76.9473 39.9175H76.2931L76.5766 38.5253H76.1114L75.8352 39.9175H74.9484V40.3743H75.7479L75.5299 41.4691H74.7594V41.9259H75.4426L75.1083 43.5791H75.5735L75.9006 41.9259H76.5548L76.2204 43.5791H76.6856L77.0127 41.9259H78.0013V41.4691H77.1072L77.3253 40.3743H78.2048ZM75.9951 41.4691L76.2131 40.3743H76.8601L76.642 41.4691H75.9951Z"
            fill="#F2F2F2"
          />
          <path
            d="M82.6024 40.3743V39.9175H81.8028L82.0863 38.5253H81.6211L81.3449 39.9175H80.6907L80.9742 38.5253H80.509L80.2328 39.9175H79.346V40.3743H80.1455L79.9275 41.4691H79.157V41.9259H79.8403L79.5059 43.5791H79.9711L80.2982 41.9259H80.9524L80.618 43.5791H81.0832L81.4103 41.9259H82.3989V41.4691H81.5048L81.7229 40.3743H82.6024ZM80.3927 41.4691L80.6107 40.3743H81.2577L81.0396 41.4691H80.3927Z"
            fill="#F2F2F2"
          />
          <path
            d="M87 40.3743V39.9175H86.2004L86.4839 38.5253H86.0187L85.7425 39.9175H85.0883L85.3718 38.5253H84.9066L84.6304 39.9175H83.7436V40.3743H84.5432L84.3251 41.4691H83.5546V41.9259H84.2379L83.9035 43.5791H84.3687L84.6958 41.9259H85.35L85.0156 43.5791H85.4808L85.8079 41.9259H86.7965V41.4691H85.9024L86.1205 40.3743H87ZM84.7903 41.4691L85.0084 40.3743H85.6553L85.4372 41.4691H84.7903Z"
            fill="#F2F2F2"
          />
          <path
            d="M43.0239 46.7952V46.3384H42.2243L42.5078 44.9462H42.0426L41.7664 46.3384H41.1122L41.3957 44.9462H40.9305L40.6543 46.3384H39.7675V46.7952H40.5671L40.349 47.89H39.5785V48.3468H40.2618L39.9274 50H40.3926L40.7197 48.3468H41.3739L41.0395 50H41.5047L41.8318 48.3468H42.8204V47.89H41.9263L42.1444 46.7952H43.0239ZM40.8142 47.89L41.0323 46.7952H41.6792L41.4611 47.89H40.8142Z"
            fill="#F2F2F2"
          />
          <path
            d="M47.4215 46.7952V46.3384H46.6219L46.9054 44.9462H46.4402L46.164 46.3384H45.5098L45.7933 44.9462H45.3281L45.0519 46.3384H44.1651V46.7952H44.9647L44.7466 47.89H43.9761V48.3468H44.6594L44.325 50H44.7902L45.1173 48.3468H45.7715L45.4371 50H45.9023L46.2294 48.3468H47.218V47.89H46.3239L46.542 46.7952H47.4215ZM45.2118 47.89L45.4299 46.7952H46.0768L45.8587 47.89H45.2118Z"
            fill="#F2F2F2"
          />
        </svg>