<svg xmlns="http://www.w3.org/2000/svg" fill="none" viewBox="0 0 311 168">
  <path fill="currentColor" d="M292.8 0H198.76C177.74 0 160.65 17.07 160.65 38.05V150.89C160.65 159.91 168 167.24 177.03 167.24H195.77C204.8 167.24 212.15 159.9 212.15 150.89V113.78H283.88C293.54 113.78 301.4 105.93 301.4 96.29V79.86C301.4 70.21 293.54 62.37 283.88 62.37H212.15V51.42H292.81C302.47 51.42 310.33 43.57 310.33 33.93V17.49C310.33 7.84 302.47 0 292.81 0H292.8ZM303.45 33.93C303.45 39.79 298.67 44.55 292.8 44.55H205.27V69.24H283.87C289.74 69.24 294.52 74.01 294.52 79.86V96.29C294.52 102.15 289.74 106.91 283.87 106.91H211.65C208.13 106.91 205.27 109.77 205.27 113.28V150.88C205.27 156.11 201.01 160.36 195.76 160.36H177.02C171.78 160.36 167.51 156.11 167.51 150.88V38.05C167.51 20.86 181.53 6.87 198.75 6.87H292.79C298.66 6.87 303.44 11.64 303.44 17.49V33.92L303.45 33.93Z"/>
  <path fill="currentColor" d="M291.9 8.90991H199.91C183.18 8.90991 169.57 22.4999 169.57 39.1999V151.11C169.57 155.06 172.8 158.31 176.81 158.36H195.99C199.98 158.36 203.22 155.12 203.22 151.14V112.32C203.22 108.23 206.56 104.9 210.65 104.9H282.96C288.2 104.9 292.46 100.64 292.46 95.4099V80.7899C292.46 75.5599 288.2 71.2999 282.96 71.2999H203.2V42.5199H291.88C297.12 42.5199 301.38 38.2599 301.38 33.0299V18.4099C301.38 13.1799 297.12 8.91991 291.88 8.91991L291.9 8.90991ZM294.53 33.0199C294.53 34.4699 293.35 35.6399 291.9 35.6399H201.86C198.82 35.6399 196.35 38.1099 196.35 41.1399V72.6499C196.35 75.6799 198.82 78.1499 201.86 78.1499H282.98C284.43 78.1499 285.61 79.3299 285.61 80.7699V95.3899C285.61 96.8399 284.43 98.0099 282.98 98.0099H210.67C202.78 98.0099 196.37 104.42 196.37 112.29V151.11C196.37 151.31 196.21 151.47 196.01 151.47H176.88C176.65 151.47 176.46 151.29 176.46 151.08V39.1999C176.46 26.2799 186.99 15.7799 199.93 15.7799H291.92C293.37 15.7799 294.55 16.9599 294.55 18.3999V33.0199H294.53Z"/>
  <path fill="currentColor" d="M287.8 17.8H200.4C188.3 17.8 178.5 27.6 178.5 39.7V144.7C178.5 147.3 180.6 149.4 183.2 149.4H189.6C192.2 149.4 194.3 147.3 194.3 144.7V111.7C194.3 103 201.4 96 210.1 96H278.8C281.4 96 283.5 93.9 283.5 91.3V84.9C283.5 82.3 281.4 80.2 278.8 80.2H200.8C197.2 80.2 194.3 77.3 194.3 73.7V40.8C194.3 36.8 197.5 33.6 201.5 33.6H287.7C290.3 33.6 292.5 31.5 292.5 28.9V22.5C292.5 19.9 290.3 17.8 287.7 17.8L287.8 17.8ZM285.6 26.7H201.5C193.8 26.7 187.4 33.1 187.4 40.8V73.7C187.4 81.1 193.4 87.1 200.8 87.1H276.7V89.1H210.1C197.6 89.1 187.4 99.3 187.4 111.7V142.6H185.4V39.7C185.4 31.4 192.1 24.7 200.4 24.7H285.6V26.7ZM92.7 53.5H57C55.1 53.5 53.6 55 53.6 56.9 53.6 58.8 55.1 60.3 57 60.3H92.7C120.3 60.3 142.8 82.8 142.8 110.3 142.8 137.9 120.3 160.4 92.7 160.4H15.6C10.8 160.4 6.9 156.5 6.9 151.7V131.4C6.9 126.6 10.8 122.7 15.6 122.7H92.7C92.7 122.7 92.7 122.7 92.7 122.7 99.5 122.7 105 117.2 105 110.4 105 103.5 99.5 98 92.7 98H57C57 98 57 98 57 98 34.3 98 15.8 79.6 15.8 56.9 15.8 34.2 34.3 15.8 57 15.8H133.1C133.5 15.8 133.9 16.1 133.9 16.6V34.8C133.9 35.3 133.5 35.6 133.1 35.6H57C45.2 35.6 35.7 45.2 35.7 56.9 35.7 68.6 45.2 78.1 57 78.1 57 78.1 57 78.1 57 78.1H92.7C110.5 78.1 124.9 92.6 124.9 110.3 124.9 128.1 110.5 142.5 92.7 142.5H24.7V140.5H92.7C92.7 140.5 92.7 140.5 92.7 140.5 109.3 140.5 122.9 127 122.9 110.3 122.9 93.7 109.3 80.2 92.7 80.2H57C57 80.2 57 80.2 57 80.2 44.1 80.2 33.6 69.7 33.6 56.9 33.6 44 44.1 33.6 57 33.6H128.4C130.3 33.6 131.8 32.1 131.8 30.2V21.3C131.8 19.4 130.3 17.8 128.4 17.8H57C35.4 17.8 17.9 35.4 17.9 56.9 17.9 78.4 35.4 95.9 56.9 96 57 96 57 96 57 96H92.7C100.6 96 107.1 102.4 107.1 110.3 107.1 118.3 100.6 124.7 92.7 124.7 92.7 124.7 92.7 124.7 92.7 124.7H16.6C12.4 124.7 8.9 128.2 8.9 132.4V150.7C8.9 154.9 12.4 158.3 16.6 158.3H92.7C92.7 158.3 92.7 158.3 92.7 158.3 119.2 158.3 140.7 136.8 140.7 110.3 140.7 83.9 119.2 62.4 92.7 62.4H57C57 62.4 57 62.4 57 62.4 54 62.4 51.5 59.9 51.5 56.9 51.5 53.9 54 51.4 57 51.4 57 51.4 57 51.4 57 51.4H134.1C142.7 51.4 149.7 44.4 149.7 35.9V15.5C149.7 7 142.7 0 134.1 0H57C25.6 0 0 25.5 0 56.9 0 88.3 25.6 113.8 57 113.8 57 113.8 57 113.8 57 113.8H92.7C94.6 113.8 96.1 112.2 96.1 110.4 96.1 108.5 94.6 106.9 92.7 106.9H57C57 106.9 57 106.9 57 106.9 29.4 106.9 6.9 84.5 6.9 56.9 6.9 29.3 29.4 6.9 57 6.9H134.1C138.9 6.9 142.8 10.8 142.8 15.6V35.9C142.8 40.7 138.9 44.6 134.1 44.6H57 57C50.2 44.6 44.6 50.1 44.6 56.9 44.6 63.7 50.1 69.2 56.9 69.2 56.9 69.2 57 69.2 57 69.2H92.7C115.4 69.2 133.9 87.7 133.9 110.3 133.9 133 115.4 151.5 92.7 151.5 92.7 151.5 92.7 151.5 92.7 151.5H16.6C16.2 151.5 15.8 151.1 15.8 150.7V132.4C15.8 132 16.2 131.6 16.6 131.6H92.7C92.7 131.6 92.7 131.6 92.7 131.6 104.5 131.6 114 122.1 114 110.4 114 98.6 104.4 89.1 92.7 89.1H57C57 89.1 57 89.1 57 89.1 39.2 89.1 24.7 74.7 24.7 56.9 24.7 39.1 39.2 24.7 57 24.7H125V26.7H57C40.3 26.7 26.8 40.3 26.8 56.9 26.8 73.5 40.3 87 56.9 87.1 57 87.1 57 87.1 57 87.1H92.7C105.6 87.1 116 97.5 116 110.4 116 123.2 105.6 133.6 92.7 133.6 92.7 133.6 92.7 133.6 92.7 133.6H21.3C19.4 133.6 17.9 135.2 17.9 137.1V146C17.9 147.9 19.4 149.4 21.3 149.4H92.7C114.3 149.4 131.8 131.9 131.8 110.3 131.8 88.8 114.3 71.3 92.7 71.3H57C57 71.3 57 71.3 57 71.3 49 71.3 42.6 64.8 42.6 56.9 42.6 49 49 42.5 57 42.5H133.1C137.3 42.5 140.7 39.1 140.7 34.9V16.6C140.7 12.4 137.3 8.9 133.1 8.9H57C30.5 8.9 8.9 30.4 8.9 56.9 8.9 83.3 30.5 104.9 56.9 104.9 57 104.9 57 104.9 57 104.9H92.7C95.7 104.9 98.2 107.3 98.2 110.3 98.2 113.4 95.7 115.8 92.7 115.8H15.6C7 115.8 0 122.8 0 131.4V151.7C0 160.3 7 167.2 15.6 167.2H92.7C124.1 167.2 149.7 141.7 149.7 110.3 149.7 79 124.1 53.4 92.7 53.4V53.5Z"/>
</svg>